<svg width="64" height="64" viewBox="0 0 64 64" fill="none" xmlns="http://www.w3.org/2000/svg">
<rect width="64" height="64" rx="32" fill="white"/>
<path d="M31.9996 33.7787C34.357 33.7787 36.6177 32.8423 38.2846 31.1754C39.9515 29.5085 40.8879 27.2477 40.8879 24.8904C40.8879 22.5331 39.9515 20.2723 38.2846 18.6054C36.6177 16.9385 34.357 16.0021 31.9996 16.0021M31.9996 33.7787C29.6423 33.7787 27.3815 32.8423 25.7147 31.1754C24.0478 29.5085 23.1113 27.2477 23.1113 24.8904C23.1113 22.5331 24.0478 20.2723 25.7147 18.6054C27.3815 16.9385 29.6423 16.0021 31.9996 16.0021M31.9996 33.7787C33.964 33.7787 35.555 29.7985 35.555 24.8904C35.555 19.9823 33.964 16.0021 31.9996 16.0021M31.9996 33.7787C30.0353 33.7787 28.4443 29.7985 28.4443 24.8904C28.4443 19.9823 30.0353 16.0021 31.9996 16.0021M23.9291 24.8904H40.136" stroke="#31564E" stroke-width="2.5" stroke-linecap="round" stroke-linejoin="round"/>
<path d="M31.9998 37.7784V48M31.9998 48C35.2773 45.1248 39.4915 43.5445 43.8514 43.5558C46.6281 43.5558 48.0165 43.5558 48.6298 43.1648C48.9978 42.9283 49.1471 42.7772 49.3835 42.4093C49.7764 41.796 49.7764 40.7027 49.7764 38.5126V22.0515C49.7764 19.513 49.7764 18.2455 48.8004 17.2162C47.8245 16.187 46.8272 16.1336 44.8292 16.0287C43.7101 15.9691 42.5879 16.0114 41.4765 16.155M31.9998 48C28.7449 45.1326 24.5211 43.5505 20.1481 43.5558C17.3714 43.5558 15.983 43.5558 15.3697 43.163C15.0018 42.9283 14.8507 42.7772 14.6142 42.4093C14.2231 41.796 14.2231 40.7009 14.2231 38.5126V22.0515C14.2231 19.513 14.2231 18.2455 15.1991 17.2162C16.1732 16.1887 17.1723 16.1354 19.1704 16.0287C20.2894 15.965 21.412 16.0073 22.523 16.155" stroke="#31564E" stroke-width="2.5" stroke-linecap="round" stroke-linejoin="round"/>
</svg>
